<svg width="30" height="29" viewBox="0 0 30 29" fill="none" xmlns="http://www.w3.org/2000/svg">
<g clip-path="url(#clip0_2834_1785)">
<path d="M29.2736 14.5001C29.2736 19.2126 25.4674 23.0642 20.7096 23.0642C15.9971 23.0642 12.1455 19.2126 12.1455 14.5001C12.1455 9.7876 15.9518 5.93604 20.6643 5.93604C25.4674 5.93604 29.2736 9.7876 29.2736 14.5001Z" fill="#FFB600"/>
<path d="M20.7096 5.93604C25.4221 5.93604 29.2736 9.7876 29.2736 14.5001C29.2736 19.2126 25.4674 23.0642 20.7096 23.0642C15.9971 23.0642 12.1455 19.2126 12.1455 14.5001" fill="#F7981D"/>
<path d="M20.7095 5.93604C25.422 5.93604 29.2735 9.7876 29.2735 14.5001C29.2735 19.2126 25.4673 23.0642 20.7095 23.0642" fill="#FF8500"/>
<path d="M9.2 5.93604C4.53281 5.98135 0.726562 9.7876 0.726562 14.5001C0.726562 19.2126 4.53281 23.0642 9.29062 23.0642C11.5109 23.0642 13.5047 22.2032 15.0453 20.8438C15.3625 20.572 15.6344 20.2548 15.9062 19.9376H14.1391C13.9125 19.6657 13.6859 19.3485 13.5047 19.0767H16.5406C16.7219 18.8048 16.9031 18.4876 17.0391 18.1704H13.0062C12.8703 17.8985 12.7344 17.5813 12.6437 17.2642H17.3562C17.6281 16.4032 17.8094 15.497 17.8094 14.5454C17.8094 13.911 17.7187 13.322 17.6281 12.7329H12.3719C12.4172 12.4157 12.5078 12.1438 12.5984 11.8267H17.3109C17.2203 11.5095 17.0844 11.1923 16.9484 10.9204H12.9609C13.0969 10.6032 13.2781 10.3313 13.4594 10.0142H16.4953C16.3141 9.69697 16.0875 9.37979 15.8156 9.10791H14.1391C14.4109 8.79072 14.6828 8.51885 15 8.24697C13.5047 6.84229 11.4656 6.02666 9.24531 6.02666C9.24531 5.93604 9.24531 5.93604 9.2 5.93604Z" fill="#FF5050"/>
<path d="M0.726562 14.5003C0.726562 19.2128 4.53281 23.0644 9.29062 23.0644C11.5109 23.0644 13.5047 22.2034 15.0453 20.844C15.3625 20.5722 15.6344 20.255 15.9062 19.9378H14.1391C13.9125 19.6659 13.6859 19.3487 13.5047 19.0769H16.5406C16.7219 18.805 16.9031 18.4878 17.0391 18.1706H13.0062C12.8703 17.8987 12.7344 17.5815 12.6437 17.2644H17.3562C17.6281 16.4034 17.8094 15.4972 17.8094 14.5456C17.8094 13.9112 17.7187 13.3222 17.6281 12.7331H12.3719C12.4172 12.4159 12.5078 12.144 12.5984 11.8269H17.3109C17.2203 11.5097 17.0844 11.1925 16.9484 10.9206H12.9609C13.0969 10.6034 13.2781 10.3315 13.4594 10.0144H16.4953C16.3141 9.69717 16.0875 9.37998 15.8156 9.10811H14.1391C14.4109 8.79092 14.6828 8.51904 15 8.24717C13.5047 6.84248 11.4656 6.02686 9.24531 6.02686H9.2" fill="#E52836"/>
<path d="M9.29082 23.0644C11.5111 23.0644 13.5049 22.2034 15.0455 20.844C15.3627 20.5722 15.6346 20.255 15.9064 19.9378H14.1393C13.9127 19.6659 13.6861 19.3487 13.5049 19.0769H16.5408C16.7221 18.805 16.9033 18.4878 17.0393 18.1706H13.0064C12.8705 17.8987 12.7346 17.5815 12.6439 17.2644H17.3564C17.6283 16.4034 17.8096 15.4972 17.8096 14.5456C17.8096 13.9112 17.7189 13.3222 17.6283 12.7331H12.3721C12.4174 12.4159 12.508 12.144 12.5986 11.8269H17.3111C17.2205 11.5097 17.0846 11.1925 16.9486 10.9206H12.9611C13.0971 10.6034 13.2783 10.3315 13.4596 10.0144H16.4955C16.3143 9.69717 16.0877 9.37998 15.8158 9.10811H14.1393C14.4111 8.79092 14.683 8.51904 15.0002 8.24717C13.5049 6.84248 11.4658 6.02686 9.24551 6.02686H9.2002" fill="#CB2026"/>
<path d="M12.3263 16.675L12.4622 15.9047C12.4169 15.9047 12.3263 15.95 12.2356 15.95C11.9185 15.95 11.8731 15.7687 11.9185 15.6781L12.1903 14.0922H12.6888L12.8247 13.2313H12.3716L12.4622 12.6875H11.556C11.556 12.6875 11.0122 15.6781 11.0122 16.0406C11.0122 16.5844 11.3294 16.8109 11.7372 16.8109C12.0091 16.8109 12.2356 16.7203 12.3263 16.675Z" fill="white"/>
<path d="M12.6436 15.225C12.6436 16.4937 13.5045 16.8109 14.2295 16.8109C14.9092 16.8109 15.1811 16.675 15.1811 16.675L15.3623 15.814C15.3623 15.814 14.8639 16.0406 14.4107 16.0406C13.4139 16.0406 13.5951 15.3156 13.5951 15.3156H15.4529C15.4529 15.3156 15.5889 14.7265 15.5889 14.5C15.5889 13.9109 15.2717 13.1859 14.2748 13.1859C13.3232 13.0953 12.6436 14.0922 12.6436 15.225ZM14.2295 13.9109C14.7279 13.9109 14.6373 14.5 14.6373 14.5453H13.6404C13.6404 14.5 13.7311 13.9109 14.2295 13.9109Z" fill="white"/>
<path d="M19.9844 16.6751L20.1656 15.6782C20.1656 15.6782 19.7125 15.9048 19.3953 15.9048C18.7609 15.9048 18.4891 15.4063 18.4891 14.8626C18.4891 13.7751 19.0328 13.186 19.6672 13.186C20.1203 13.186 20.4828 13.4579 20.4828 13.4579L20.6188 12.5063C20.6188 12.5063 20.075 12.2798 19.5766 12.2798C18.5344 12.2798 17.4922 13.186 17.4922 14.9079C17.4922 16.0407 18.0359 16.811 19.1234 16.811C19.4859 16.811 19.9844 16.6751 19.9844 16.6751Z" fill="white"/>
<path d="M7.34199 13.0952C6.70762 13.0952 6.25449 13.2765 6.25449 13.2765L6.11855 14.0468C6.11855 14.0468 6.52637 13.8655 7.11543 13.8655C7.43262 13.8655 7.70449 13.9108 7.70449 14.1827C7.70449 14.364 7.65918 14.4093 7.65918 14.4093C7.65918 14.4093 7.3873 14.4093 7.25137 14.4093C6.48105 14.4093 5.62012 14.7265 5.62012 15.7687C5.62012 16.5843 6.16387 16.7655 6.48105 16.7655C7.11543 16.7655 7.3873 16.3577 7.43262 16.3577L7.3873 16.7202H8.20293L8.56543 14.228C8.56543 13.1405 7.65918 13.0952 7.34199 13.0952ZM7.52324 15.1343C7.52324 15.2702 7.43262 15.9952 6.88887 15.9952C6.61699 15.9952 6.52637 15.7687 6.52637 15.6327C6.52637 15.4062 6.6623 15.089 7.34199 15.089C7.47793 15.1343 7.52324 15.1343 7.52324 15.1343Z" fill="white"/>
<path d="M9.42647 16.7659C9.65303 16.7659 10.7858 16.8112 10.7858 15.5878C10.7858 14.455 9.69834 14.6815 9.69834 14.2284C9.69834 14.0019 9.87959 13.9112 10.1968 13.9112C10.3327 13.9112 10.8312 13.9565 10.8312 13.9565L10.9671 13.1409C10.9671 13.1409 10.6499 13.0503 10.1062 13.0503C9.42647 13.0503 8.74678 13.3222 8.74678 14.2284C8.74678 15.2706 9.87959 15.18 9.87959 15.5878C9.87959 15.8597 9.5624 15.905 9.33584 15.905C8.92803 15.905 8.52022 15.769 8.52022 15.769L8.38428 16.5847C8.42959 16.6753 8.65615 16.7659 9.42647 16.7659Z" fill="white"/>
<path d="M27.5062 12.3706L27.3249 13.594C27.3249 13.594 26.9624 13.1409 26.464 13.1409C25.6483 13.1409 24.9233 14.1378 24.9233 15.3159C24.9233 16.0409 25.2858 16.8112 26.0562 16.8112C26.5999 16.8112 26.9171 16.4487 26.9171 16.4487L26.8718 16.7659H27.778L28.4577 12.4159L27.5062 12.3706ZM27.0983 14.7722C27.0983 15.2706 26.8718 15.905 26.3733 15.905C26.0562 15.905 25.8749 15.6331 25.8749 15.18C25.8749 14.455 26.1921 14.0019 26.5999 14.0019C26.9171 14.0019 27.0983 14.2284 27.0983 14.7722Z" fill="white"/>
<path d="M2.40293 16.7206L2.94668 13.4581L3.0373 16.7206H3.67168L4.8498 13.4581L4.35137 16.7206H5.30293L6.02793 12.3706H4.53262L3.62637 15.044L3.58105 12.3706H2.26699L1.54199 16.7206H2.40293Z" fill="white"/>
<path d="M16.45 16.7204C16.7219 15.2251 16.7672 14.0017 17.4016 14.2282C17.4922 13.6392 17.6281 13.4126 17.7188 13.186C17.7188 13.186 17.6734 13.186 17.5375 13.186C17.1297 13.186 16.8125 13.7298 16.8125 13.7298L16.9031 13.2313H16.0422L15.4531 16.7657H16.45V16.7204Z" fill="white"/>
<path d="M22.0686 13.0952C21.4342 13.0952 20.9811 13.2765 20.9811 13.2765L20.8451 14.0468C20.8451 14.0468 21.2529 13.8655 21.842 13.8655C22.1592 13.8655 22.4311 13.9108 22.4311 14.1827C22.4311 14.364 22.3857 14.4093 22.3857 14.4093C22.3857 14.4093 22.1139 14.4093 21.9779 14.4093C21.2076 14.4093 20.3467 14.7265 20.3467 15.7687C20.3467 16.5843 20.8904 16.7655 21.2076 16.7655C21.842 16.7655 22.1139 16.3577 22.1592 16.3577L22.1139 16.7202H22.9295L23.292 14.228C23.3373 13.1405 22.3857 13.0952 22.0686 13.0952ZM22.2951 15.1343C22.2951 15.2702 22.2045 15.9952 21.6607 15.9952C21.3889 15.9952 21.2982 15.7687 21.2982 15.6327C21.2982 15.4062 21.4342 15.089 22.1139 15.089C22.2498 15.1343 22.2498 15.1343 22.2951 15.1343Z" fill="white"/>
<path d="M24.0623 16.7204C24.3342 15.2251 24.3795 14.0017 25.0139 14.2282C25.1045 13.6392 25.2404 13.4126 25.3311 13.186C25.3311 13.186 25.2857 13.186 25.1498 13.186C24.742 13.186 24.4248 13.7298 24.4248 13.7298L24.5154 13.2313H23.6545L23.0654 16.7657H24.0623V16.7204Z" fill="white"/>
<path d="M10.9219 16.0406C10.9219 16.5844 11.2391 16.8109 11.6469 16.8109C11.9641 16.8109 12.2359 16.7203 12.3266 16.675L12.4625 15.9047C12.4172 15.9047 12.3266 15.95 12.2359 15.95C11.9187 15.95 11.8734 15.7687 11.9188 15.6781L12.1906 14.0922H12.6891L12.825 13.2313H12.3719L12.4625 12.6875" fill="#DCE5E5"/>
<path d="M13.0967 15.225C13.0967 16.4937 13.5045 16.8109 14.2295 16.8109C14.9092 16.8109 15.1811 16.675 15.1811 16.675L15.3623 15.814C15.3623 15.814 14.8639 16.0406 14.4107 16.0406C13.4139 16.0406 13.5951 15.3156 13.5951 15.3156H15.4529C15.4529 15.3156 15.5889 14.7265 15.5889 14.5C15.5889 13.9109 15.2717 13.1859 14.2748 13.1859C13.3232 13.0953 13.0967 14.0922 13.0967 15.225ZM14.2295 13.9109C14.7279 13.9109 14.8186 14.5 14.8186 14.5453H13.6404C13.6404 14.5 13.7311 13.9109 14.2295 13.9109Z" fill="#DCE5E5"/>
<path d="M19.9844 16.6751L20.1656 15.6782C20.1656 15.6782 19.7125 15.9048 19.3953 15.9048C18.7609 15.9048 18.4891 15.4063 18.4891 14.8626C18.4891 13.7751 19.0328 13.186 19.6672 13.186C20.1203 13.186 20.4828 13.4579 20.4828 13.4579L20.6188 12.5063C20.6188 12.5063 20.075 12.2798 19.5766 12.2798C18.5344 12.2798 17.9453 13.186 17.9453 14.9079C17.9453 16.0407 18.0359 16.811 19.1234 16.811C19.4859 16.811 19.9844 16.6751 19.9844 16.6751Z" fill="#DCE5E5"/>
<path d="M6.11855 14.0923C6.11855 14.0923 6.52637 13.911 7.11543 13.911C7.43262 13.911 7.70449 13.9563 7.70449 14.2282C7.70449 14.4095 7.65918 14.4548 7.65918 14.4548C7.65918 14.4548 7.3873 14.4548 7.25137 14.4548C6.48105 14.4548 5.62012 14.772 5.62012 15.8142C5.62012 16.6298 6.16387 16.811 6.48105 16.811C7.11543 16.811 7.3873 16.4032 7.43262 16.4032L7.3873 16.7657H8.20293L8.56543 14.2735C8.56543 13.2313 7.65918 13.186 7.29668 13.186M7.97637 15.1345C7.97637 15.2704 7.43262 15.9954 6.88887 15.9954C6.61699 15.9954 6.52637 15.7688 6.52637 15.6329C6.52637 15.4063 6.6623 15.0892 7.34199 15.0892C7.47793 15.1345 7.97637 15.1345 7.97637 15.1345Z" fill="#DCE5E5"/>
<path d="M8.42969 16.6753C8.42969 16.6753 8.70156 16.7659 9.47187 16.7659C9.69844 16.7659 10.8312 16.8112 10.8312 15.5878C10.8312 14.455 9.74375 14.6815 9.74375 14.2284C9.74375 14.0019 9.925 13.9112 10.2422 13.9112C10.3781 13.9112 10.8766 13.9565 10.8766 13.9565L11.0125 13.1409C11.0125 13.1409 10.6953 13.0503 10.1516 13.0503C9.47187 13.0503 9.24531 13.3222 9.24531 14.2284C9.24531 15.2706 9.925 15.18 9.925 15.5878C9.925 15.8597 9.60781 15.905 9.38125 15.905" fill="#DCE5E5"/>
<path d="M27.3248 13.5937C27.3248 13.5937 26.9623 13.1405 26.4638 13.1405C25.6482 13.1405 25.3763 14.1374 25.3763 15.3155C25.3763 16.0405 25.2857 16.8108 26.056 16.8108C26.5998 16.8108 26.917 16.4483 26.917 16.4483L26.8716 16.7655H27.7779L28.4576 12.4155M27.2795 14.7718C27.2795 15.2702 26.8716 15.9046 26.3732 15.9046C26.056 15.9046 25.8748 15.6327 25.8748 15.1796C25.8748 14.4546 26.192 14.0015 26.5998 14.0015C26.917 14.0015 27.2795 14.228 27.2795 14.7718Z" fill="#DCE5E5"/>
<path d="M2.40293 16.7206L2.94668 13.4581L3.0373 16.7206H3.67168L4.8498 13.4581L4.35137 16.7206H5.30293L6.02793 12.3706H4.89512L3.62637 15.044L3.58105 12.3706H3.08262L1.54199 16.7206H2.40293Z" fill="#DCE5E5"/>
<path d="M15.498 16.7204H16.4496C16.7215 15.2251 16.7668 14.0017 17.4012 14.2282C17.4918 13.6392 17.6277 13.4126 17.7184 13.186C17.7184 13.186 17.673 13.186 17.5371 13.186C17.1293 13.186 16.8121 13.7298 16.8121 13.7298L16.9027 13.2313" fill="#DCE5E5"/>
<path d="M20.8451 14.0923C20.8451 14.0923 21.2529 13.911 21.842 13.911C22.1592 13.911 22.4311 13.9563 22.4311 14.2282C22.4311 14.4095 22.3857 14.4548 22.3857 14.4548C22.3857 14.4548 22.1139 14.4548 21.9779 14.4548C21.2076 14.4548 20.3467 14.772 20.3467 15.8142C20.3467 16.6298 20.8904 16.811 21.2076 16.811C21.842 16.811 22.1139 16.4032 22.1592 16.4032L22.1139 16.7657H22.9295L23.292 14.2735C23.292 13.2313 22.3857 13.186 22.0232 13.186M22.7029 15.1345C22.7029 15.2704 22.1592 15.9954 21.6154 15.9954C21.3436 15.9954 21.2529 15.7688 21.2529 15.6329C21.2529 15.4063 21.3889 15.0892 22.0686 15.0892C22.2498 15.1345 22.7029 15.1345 22.7029 15.1345Z" fill="#DCE5E5"/>
<path d="M23.1108 16.7204H24.0624C24.3343 15.2251 24.3796 14.0017 25.014 14.2282C25.1046 13.6392 25.2405 13.4126 25.3312 13.186C25.3312 13.186 25.2858 13.186 25.1499 13.186C24.7421 13.186 24.4249 13.7298 24.4249 13.7298L24.5155 13.2313" fill="#DCE5E5"/>
</g>
<defs>
<clipPath id="clip0_2834_1785">
<rect width="29" height="29" fill="white" transform="translate(0.5)"/>
</clipPath>
</defs>
</svg>
