<svg width="37" height="11" viewBox="0 0 37 11" fill="none" xmlns="http://www.w3.org/2000/svg">
<path fill-rule="evenodd" clip-rule="evenodd" d="M6.21959 1.1934C6.50262 1.19167 7.34375 1.11451 7.70004 2.33925C7.94004 3.16425 8.32234 4.51564 8.84696 6.39342H9.06061C9.62321 4.41374 10.0097 3.06235 10.22 2.33925C10.58 1.10175 11.48 1.19342 11.84 1.19342L14.6175 1.19342V9.9934H11.7866V4.80743H11.5968L10.0187 9.9934H7.88884L6.31076 4.80359H6.12093V9.9934H3.29004V1.19342L6.21959 1.1934ZM18.6826 1.19342V6.38326H18.9085L20.8281 2.11569C21.2007 1.26644 21.9949 1.19342 21.9949 1.19342H24.7343V9.99342H21.8443V4.80359H21.6185L19.7365 9.07115C19.3639 9.91656 18.5321 9.99342 18.5321 9.99342H15.7926V1.19342H18.6826ZM34.7235 5.37524C34.3204 6.53876 33.0544 7.37204 31.6528 7.37204H28.622V9.99342H25.8738V5.37524H34.7235Z" fill="#0F754E"/>
<path fill-rule="evenodd" clip-rule="evenodd" d="M31.7851 1.19336H25.7295C25.8736 3.15254 27.5301 4.82972 29.245 4.82972H34.9143C35.2414 3.20141 34.1152 1.19336 31.7851 1.19336Z" fill="url(#paint0_linear_2834_1770)"/>
<defs>
<linearGradient id="paint0_linear_2834_1770" x1="34.9699" y1="3.48079" x2="25.7295" y2="3.48079" gradientUnits="userSpaceOnUse">
<stop stop-color="#1F5CD7"/>
<stop offset="1" stop-color="#02AEFF"/>
</linearGradient>
</defs>
</svg>
