<svg width="44" height="44" viewBox="0 0 44 44" fill="none" xmlns="http://www.w3.org/2000/svg">
<g clip-path="url(#clip0_2834_1776)">
<path fill-rule="evenodd" clip-rule="evenodd" d="M17.9402 17.1494L13.8549 26.8715L11.1082 26.8748L8.78222 18.7316L8.59375 18.1181L8.6093 18.1268L8.63484 18.1413L8.60977 18.1279L8.60947 18.1269C8.62167 18.1336 8.63368 18.1405 8.64583 18.1473C9.0643 18.3741 10.9221 19.4582 12.0708 21.2143C12.2457 22.1074 12.4131 22.9187 12.6495 23.7938L15.191 17.1494H17.9402L17.9402 17.1494Z" fill="#006CB5"/>
<path fill-rule="evenodd" clip-rule="evenodd" d="M28.9919 23.6972C28.9728 25.721 27.2036 27.0277 24.476 27.0277C23.3135 27.0148 22.1923 26.7809 21.5835 26.5077L21.9481 24.3272L22.2834 24.4842C23.1374 24.8478 23.688 24.9937 24.7272 24.9937C25.4738 24.9937 26.272 24.6942 26.2777 24.0403C26.281 23.6135 25.9424 23.3106 24.9324 22.8335C23.949 22.3666 22.6453 21.5866 22.6619 20.1868C22.6744 18.2929 24.4829 16.9727 27.0468 16.9727C28.0509 16.9727 28.855 17.1827 29.3705 17.3823L29.0187 19.4929L28.7834 19.3794C28.3079 19.1832 27.6923 18.9928 26.8416 19.0064C25.8282 19.0064 25.356 19.4401 25.356 19.8464C25.3527 20.2995 25.9067 20.6034 26.8125 21.0531C28.3112 21.747 29.0052 22.5903 28.9919 23.6972H28.9919Z" fill="#006CB5"/>
<path fill-rule="evenodd" clip-rule="evenodd" d="M36.0265 17.1494H34.0229C33.4009 17.1494 32.9346 17.3227 32.6644 17.9594L28.8101 26.8843H31.5333C31.5333 26.8843 31.9794 25.6843 32.0813 25.4206C32.3774 25.4206 35.0264 25.4274 35.4042 25.4274C35.4794 25.768 35.717 26.8843 35.717 26.8843H38.1251L36.0265 17.1494V17.1494ZM32.8268 23.4302C33.2931 22.2184 33.7607 20.9978 34.2048 19.7765C34.4602 20.9952 34.7213 22.2124 34.9805 23.4302H32.8268H32.8268Z" fill="#006CB5"/>
<path fill-rule="evenodd" clip-rule="evenodd" d="M18.9896 17.1392H21.5835L19.9604 26.8809H17.3672L18.9896 17.1392Z" fill="#006CB5"/>
<path fill-rule="evenodd" clip-rule="evenodd" d="M5.875 17.0532L10.2641 17.0564C10.8053 17.076 11.2415 17.2525 11.3949 17.8458L12.0707 21.2142C10.922 19.458 9.06422 18.374 8.64574 18.1471C8.63359 18.1404 8.62159 18.1335 8.60939 18.1268L8.60968 18.1278L8.63475 18.1411L8.60921 18.1266C8.53926 18.0874 8.46853 18.0487 8.39714 18.0109C7.63051 17.6038 6.78265 17.2774 5.875 17.0532L5.875 17.0532Z" fill="#FAA841"/>
</g>
<defs>
<clipPath id="clip0_2834_1776">
<rect width="43" height="44" fill="white" transform="translate(0.5)"/>
</clipPath>
</defs>
</svg>
