<svg width="18" height="17" viewBox="0 0 18 17" fill="none" xmlns="http://www.w3.org/2000/svg">
<path d="M0.890937 2.50366C2.801 -0.165216 6.78179 -0.168417 8.697 2.49726L8.99585 2.91327L9.26385 2.53374C11.163 -0.151136 15.1508 -0.177377 17.0853 2.4819C17.7391 3.38027 18.0592 4.47687 17.991 5.58426C17.9227 6.69164 17.4704 7.74105 16.7113 8.5531L9.46951 16.296C9.40936 16.3604 9.33655 16.4117 9.25561 16.4468C9.17467 16.4819 9.08734 16.5 8.99906 16.5C8.91078 16.5 8.82345 16.4819 8.74251 16.4468C8.66157 16.4117 8.58876 16.3604 8.52861 16.296L1.28169 8.52494C0.530352 7.71928 0.0811729 6.68013 0.00998374 5.58291C-0.0612054 4.48569 0.249956 3.39762 0.890937 2.50238V2.50366ZM7.65199 3.24224C6.25029 1.29018 3.33571 1.29274 1.93723 3.24672C1.46828 3.90203 1.2407 4.6984 1.29292 5.50141C1.34514 6.30442 1.67396 7.06491 2.22387 7.65452L9.00035 14.92L15.7704 7.6814C16.3267 7.0865 16.6582 6.31767 16.7082 5.50632C16.7583 4.69497 16.5238 3.89151 16.0448 3.23328C14.6277 1.28506 11.7061 1.3049 10.3146 3.27168L9.52478 4.38787C9.46567 4.47131 9.38737 4.53945 9.29642 4.58661C9.20548 4.63376 9.10452 4.65857 9.00198 4.65894C8.89944 4.65932 8.79831 4.63526 8.70701 4.58877C8.61572 4.54228 8.53692 4.47471 8.4772 4.39171L7.65135 3.24224H7.65199Z" fill="white"/>
</svg>
