<svg width="61" height="27" viewBox="0 0 61 27" fill="none" xmlns="http://www.w3.org/2000/svg">
<path d="M1.66 19V5H4.9V16.36H11.92V19H1.66ZM20.2959 19.24C19.1893 19.24 18.1626 19.06 17.2159 18.7C16.2826 18.34 15.4693 17.8333 14.7759 17.18C14.0959 16.5267 13.5626 15.76 13.1759 14.88C12.8026 14 12.6159 13.04 12.6159 12C12.6159 10.96 12.8026 10 13.1759 9.12C13.5626 8.24 14.1026 7.47333 14.7959 6.82C15.4893 6.16667 16.3026 5.66 17.2359 5.3C18.1693 4.94 19.1826 4.76 20.2759 4.76C21.3826 4.76 22.3959 4.94 23.3159 5.3C24.2493 5.66 25.0559 6.16667 25.7359 6.82C26.4293 7.47333 26.9693 8.24 27.3559 9.12C27.7426 9.98667 27.9359 10.9467 27.9359 12C27.9359 13.04 27.7426 14.0067 27.3559 14.9C26.9693 15.78 26.4293 16.5467 25.7359 17.2C25.0559 17.84 24.2493 18.34 23.3159 18.7C22.3959 19.06 21.3893 19.24 20.2959 19.24ZM20.2759 16.48C20.9026 16.48 21.4759 16.3733 21.9959 16.16C22.5293 15.9467 22.9959 15.64 23.3959 15.24C23.7959 14.84 24.1026 14.3667 24.3159 13.82C24.5426 13.2733 24.6559 12.6667 24.6559 12C24.6559 11.3333 24.5426 10.7267 24.3159 10.18C24.1026 9.63333 23.7959 9.16 23.3959 8.76C23.0093 8.36 22.5493 8.05333 22.0159 7.84C21.4826 7.62667 20.9026 7.52 20.2759 7.52C19.6493 7.52 19.0693 7.62667 18.5359 7.84C18.0159 8.05333 17.5559 8.36 17.1559 8.76C16.7559 9.16 16.4426 9.63333 16.2159 10.18C16.0026 10.7267 15.8959 11.3333 15.8959 12C15.8959 12.6533 16.0026 13.26 16.2159 13.82C16.4426 14.3667 16.7493 14.84 17.1359 15.24C17.5359 15.64 18.0026 15.9467 18.5359 16.16C19.0693 16.3733 19.6493 16.48 20.2759 16.48ZM37.1309 19.24C36.0243 19.24 35.0043 19.0667 34.0709 18.72C33.1509 18.36 32.3443 17.8533 31.6509 17.2C30.9709 16.5467 30.4376 15.78 30.0509 14.9C29.6776 14.02 29.4909 13.0533 29.4909 12C29.4909 10.9467 29.6776 9.98 30.0509 9.1C30.4376 8.22 30.9776 7.45333 31.6709 6.8C32.3643 6.14667 33.1776 5.64667 34.1109 5.3C35.0443 4.94 36.0709 4.76 37.1909 4.76C38.4309 4.76 39.5443 4.96667 40.5309 5.38C41.5309 5.79333 42.3709 6.39333 43.0509 7.18L40.9709 9.1C40.4643 8.56667 39.9109 8.17333 39.3109 7.92C38.7109 7.65333 38.0576 7.52 37.3509 7.52C36.6709 7.52 36.0509 7.62667 35.4909 7.84C34.9309 8.05333 34.4443 8.36 34.0309 8.76C33.6309 9.16 33.3176 9.63333 33.0909 10.18C32.8776 10.7267 32.7709 11.3333 32.7709 12C32.7709 12.6533 32.8776 13.2533 33.0909 13.8C33.3176 14.3467 33.6309 14.8267 34.0309 15.24C34.4443 15.64 34.9243 15.9467 35.4709 16.16C36.0309 16.3733 36.6443 16.48 37.3109 16.48C37.9509 16.48 38.5709 16.38 39.1709 16.18C39.7843 15.9667 40.3776 15.6133 40.9509 15.12L42.7909 17.46C42.0309 18.0333 41.1443 18.4733 40.1309 18.78C39.1309 19.0867 38.1309 19.24 37.1309 19.24ZM39.8309 17.04V11.78H42.7909V17.46L39.8309 17.04ZM52.6006 19.24C51.494 19.24 50.4673 19.06 49.5206 18.7C48.5873 18.34 47.774 17.8333 47.0806 17.18C46.4006 16.5267 45.8673 15.76 45.4806 14.88C45.1073 14 44.9206 13.04 44.9206 12C44.9206 10.96 45.1073 10 45.4806 9.12C45.8673 8.24 46.4073 7.47333 47.1006 6.82C47.794 6.16667 48.6073 5.66 49.5406 5.3C50.474 4.94 51.4873 4.76 52.5806 4.76C53.6873 4.76 54.7006 4.94 55.6206 5.3C56.554 5.66 57.3606 6.16667 58.0406 6.82C58.734 7.47333 59.274 8.24 59.6606 9.12C60.0473 9.98667 60.2406 10.9467 60.2406 12C60.2406 13.04 60.0473 14.0067 59.6606 14.9C59.274 15.78 58.734 16.5467 58.0406 17.2C57.3606 17.84 56.554 18.34 55.6206 18.7C54.7006 19.06 53.694 19.24 52.6006 19.24ZM52.5806 16.48C53.2073 16.48 53.7806 16.3733 54.3006 16.16C54.834 15.9467 55.3006 15.64 55.7006 15.24C56.1006 14.84 56.4073 14.3667 56.6206 13.82C56.8473 13.2733 56.9606 12.6667 56.9606 12C56.9606 11.3333 56.8473 10.7267 56.6206 10.18C56.4073 9.63333 56.1006 9.16 55.7006 8.76C55.314 8.36 54.854 8.05333 54.3206 7.84C53.7873 7.62667 53.2073 7.52 52.5806 7.52C51.954 7.52 51.374 7.62667 50.8406 7.84C50.3206 8.05333 49.8606 8.36 49.4606 8.76C49.0606 9.16 48.7473 9.63333 48.5206 10.18C48.3073 10.7267 48.2006 11.3333 48.2006 12C48.2006 12.6533 48.3073 13.26 48.5206 13.82C48.7473 14.3667 49.054 14.84 49.4406 15.24C49.8406 15.64 50.3073 15.9467 50.8406 16.16C51.374 16.3733 51.954 16.48 52.5806 16.48Z" fill="white"/>
</svg>
